# xmcd
#
# Track frame offsets: 
#        150
#        18468
#        33064
#        46289
#        60354
#        80389
#        92430
#        103782
#        114432
#        133965
#        152146
#        164646
#        178573
#        189652
#        206946
#        220950
#        232834
#        248976
#        261174
#        275352
#        293622
#
# Disc length: 4090 seconds
#
# Revision: 0
# Processed by: cddbd v1.5.2PL0 Copyright (c) Steve Scherf et al.
# Submitted via: ExactAudioCopy v0.95b4
#
DISCID=260ff815
DTITLE=Hank Williams, Jr. - Hank Williams Jr.'s Greatest Hits
DYEAR=1900
DGENRE=Country
TTITLE0=Family Tradition
TTITLE1=Whiskey Bent and Hell Bound
TTITLE2=Women I've Never Had
TTITLE3=Old Habits
TTITLE4=Kaw-Liga
TTITLE5=Dixie On My Mind
TTITLE6=Texas Women
TTITLE7=The American Dream
TTITLE8=A Country Boy Can Survive
TTITLE9=All My Rowdy Friends Have Settled Down
TTITLE10=If Heaven Ain't A Lot Like Dixie
TTITLE11=Good Friends, Good Whiskey, Good Lovin'
TTITLE12=I Fought the Law
TTITLE13=All For the Love of Sunshine
TTITLE14=Hony Tonk Women
TTITLE15=Mobile Boogie
TTITLE16=Hog Wild
TTITLE17=Eleven Roses
TTITLE18=I'd Love to Knock the Hell Out of You
TTITLE19=Naked Women and Beer
TTITLE20=Monday Night Football
EXTD=
EXTT0=
EXTT1=
EXTT2=
EXTT3=
EXTT4=
EXTT5=
EXTT6=
EXTT7=
EXTT8=
EXTT9=
EXTT10=
EXTT11=
EXTT12=
EXTT13=
EXTT14=
EXTT15=
EXTT16=
EXTT17=
EXTT18=
EXTT19=
EXTT20=
PLAYORDER=
